<svg xmlns="http://www.w3.org/2000/svg" viewBox="0 0 200 200" width="200" height="200" role="img" aria-label="Supply Chain">
  <defs>
    <linearGradient id="g" x1="0" y1="0" x2="1" y2="1">
      <stop offset="0" stop-color="#1b5e9b"/>
      <stop offset="1" stop-color="#0d2f52"/>
    </linearGradient>
  </defs>
  <circle cx="100" cy="100" r="100" fill="url(#g)"/>
  <g transform="translate(73.6,40) scale(2.2)" fill="none" stroke="#ffffff" stroke-width="1.6" stroke-linecap="round" stroke-linejoin="round">
    <path d="M14 18V6a2 2 0 0 0-2-2H4a2 2 0 0 0-2 2v11a1 1 0 0 0 1 1h2"/>
    <path d="M15 18H9"/>
    <path d="M19 18h2a1 1 0 0 0 1-1v-3.65a1 1 0 0 0-.22-.624l-3.48-4.35A1 1 0 0 0 18.52 8H14"/>
    <circle cx="7" cy="18" r="2"/>
    <circle cx="17" cy="18" r="2"/>
  </g>
  <text x="100" y="122" text-anchor="middle" fill="#ffffff" font-family="Arial, Helvetica, sans-serif" font-size="20" font-weight="600">
    <tspan x="100" dy="0">Supply</tspan>
    <tspan x="100" dy="23">Chain</tspan>
  </text>
</svg>
