
<svg xmlns="http://www.w3.org/2000/svg" width="346.667" height="346.667" version="1.0" viewBox="0 0 260 260" fill="#ee3524"><path d="M98.5 31.5c-4.7 2.5-9.4 4.6-10.5 4.8-2.1.3-6 3.5-6 4.9 0 .5.9 1.8 2 3s2 2.8 2 3.5c0 .8 1.7 3.7 3.8 6.6 3.6 4.9 7.2 13.8 7.2 17.8 0 1 .4 2 .9 2.3.5.3 1.1 2.9 1.4 5.8.3 2.9.8 6.2 1 7.3 1.4 5.8 2.6 21 1.8 22.2-1.5 2.4-5 3.1-12.6 2.6-20.7-1.3-50.5-.4-56.1 1.7-1.2.5-2.5.6-2.8.3-.3-.3-1.8-.1-3.3.5-1.5.6-4.7 1.6-7.1 2.2-2.3.6-5.7 2.4-7.6 4.1-3.7 3.2-3.9 5.2-1.6 13.9.7 2.5 1.4 5.6 1.5 6.9.2 1.3 1.3 3.3 2.4 4.4 1.9 1.9 2.5 2 6.8.9 6.8-1.7 32.6-1.5 45.8.2 3 .4 2.9 3-.3 6.2-4.7 4.8-15.4 14.1-20.2 17.5-5.3 3.8-10.7 9.5-11.6 12.1-.8 2.7 3.1 10 6.6 12.3 1.6 1.1 3 2.3 3 2.7 0 .4 2.4 1.5 5.4 2.3 5 1.5 5.8 1.5 8.5.1 1.6-.9 3.7-1.6 4.5-1.6 2 0 7-3.6 13-9.3 2.7-2.6 5.7-4.7 6.8-4.7 1 0 2.1-.7 2.4-1.5.3-.8 1.3-1.7 2.3-2 .9-.3 2.5-1.9 3.5-3.6 1-1.6 3.3-3.8 5.2-4.6 1.9-.9 3.4-2 3.4-2.5 0-.4.7-.8 1.5-.8 1.9 0 2.4 2.8 2.3 11.5 0 3.8.3 8.6.7 10.5.7 3.4 1.3 8 1.9 15 .2 1.9.5 3.5.6 3.5.2 0 1 2.9 1.7 6.5.7 3.9 6.2 9.8 10 10.9 4.9 1.4 20.3.6 24.4-1.2 4.2-1.9 7.9-8.5 7.9-14.1 0-1.9.4-3.7.9-4 .5-.3 1.3-5 1.9-10.3 1.3-12.3 1.3-14.4.1-15.9-.5-.6-1.2-3.1-1.5-5.5-.4-2.4-1.1-5.2-1.6-6.3-.7-1.3-.5-2.9.8-5.7l1.9-3.8 5.5.4c3 .3 8.8.7 12.8 1 4 .3 8.1.9 9 1.3.9.5 4.4 1.4 7.7 2.1 3.3.7 8 1.7 10.5 2.3 2.5.6 6.1 1.2 8 1.4 8.8.8 11.8 1.1 16 1.9 4.2.8 5.8.9 11 .6 1.1-.1 4-1.9 6.4-4.1 3.5-3.3 4.7-5.2 6-10.3 2.5-9.4 2.8-10.8 2.9-15.7.2-14.1-.9-16-10.3-16.7-3.6-.2-8.7-.9-11.5-1.5-2.7-.5-7.7-1.2-11-1.4-3.3-.3-7.6-.7-9.5-1-1.9-.3-6.2-.7-9.7-.9-3.4-.2-7-.6-8-.8-1-.3-4.9-.9-8.8-1.2-8.2-.8-14-1.4-17.5-1.8-3.5-.3-4.7-1.3-5.2-4.1-.4-2 .6-3.7 4.3-7.8 2.6-2.9 4.6-5.4 4.4-5.7-1-.9 1.7-4.1 3.5-4.1 1.4 0 2-.7 2-2.3 0-1.3.7-3.2 1.5-4.3.8-1 1.5-2.5 1.5-3.2 0-.7 1.1-2.3 2.4-3.5 1.3-1.2 2.7-3.3 3.1-4.7.4-1.4 1.5-3.9 2.5-5.5 1-1.7 2.3-4.9 2.9-7.2.6-2.3 1.7-4.8 2.5-5.5 3.3-3.4 3.9-5.9 2.1-9.7-1.8-4.1-8.4-9.2-12.4-9.7-14-1.9-13.7-1.9-15 1.4-.7 1.6-1 4.5-.8 6.3.5 3.9-1.3 7.4-8.3 16.1-2.5 3.1-5.8 7.5-7.4 9.7-2.7 3.7-6.1 6-7.2 4.8-.3-.2-.6-1.3-.8-2.3-3.6-18-22.4-48.4-29.9-48.4-.9 0-5.5 2-10.2 4.5z"/></svg>