<svg width="831" height="320" viewBox="0 0 831 320" fill="none" xmlns="http://www.w3.org/2000/svg">
<path d="M484.82 67.3053C487.849 70.2551 489.363 74.5218 489.363 80.079V103.73H484.346C483.477 103.73 482.765 103.019 482.765 102.15V81.0272C482.765 77.0239 481.765 73.9556 479.763 71.8354C477.761 69.7152 475.022 68.6486 471.559 68.6486C468.095 68.6486 465.251 69.7416 463.17 71.9407C461.09 74.1399 460.063 77.3399 460.063 81.5276V102.137C460.063 103.006 459.351 103.717 458.482 103.717H453.399V63.5918H458.482C459.351 63.5918 460.063 64.3029 460.063 65.172V69.307C461.379 67.2527 463.17 65.6724 465.449 64.5531C467.714 63.4337 470.216 62.8675 472.955 62.8675C477.84 62.8675 481.791 64.3424 484.82 67.2922V67.3053Z" fill="#00607B"/>
<path d="M505.929 69.0963V92.7473C505.929 94.6963 506.337 96.079 507.18 96.8823C508.01 97.6856 509.445 98.0938 511.5 98.0938H514.831C515.7 98.0938 516.412 98.8049 516.412 99.6741V103.743H510.407C506.693 103.743 503.914 102.887 502.058 101.175C500.201 99.4634 499.279 96.6584 499.279 92.7605V69.1095H494.077V63.6181H499.279V53.5177H505.942V63.6181H516.412V67.5424C516.412 68.4115 515.714 69.1095 514.844 69.1095H505.942L505.929 69.0963Z" fill="#00607B"/>
<path d="M521.258 72.7177C522.917 69.623 525.195 67.2132 528.105 65.5012C531.016 63.7893 534.242 62.9333 537.811 62.9333C541.379 62.9333 544.382 63.6971 546.963 65.1983C549.544 66.7128 551.48 68.6222 552.744 70.9136V65.1588C552.744 64.2897 553.442 63.5918 554.311 63.5918H559.473V103.717H554.311C553.442 103.717 552.731 103.006 552.731 102.137V96.237C551.414 98.5811 549.452 100.517 546.831 102.058C544.224 103.598 541.182 104.362 537.719 104.362C534.255 104.362 530.937 103.48 528.053 101.728C525.169 99.977 522.904 97.5012 521.244 94.3276C519.585 91.1539 518.756 87.5457 518.756 83.4897C518.756 79.4337 519.585 75.786 521.244 72.6914L521.258 72.7177ZM550.914 75.6807C549.689 73.442 548.043 71.7169 545.975 70.5185C543.895 69.3202 541.616 68.7276 539.128 68.7276C536.639 68.7276 534.374 69.307 532.319 70.479C530.265 71.651 528.632 73.363 527.421 75.6017C526.196 77.8535 525.59 80.4872 525.59 83.5029C525.59 86.5185 526.196 89.2444 527.421 91.5226C528.645 93.7877 530.278 95.5259 532.319 96.7243C534.374 97.9226 536.639 98.5152 539.128 98.5152C541.616 98.5152 543.895 97.9226 545.975 96.7243C548.056 95.5259 549.702 93.8008 550.914 91.5226C552.138 89.2576 552.744 86.6107 552.744 83.5819C552.744 80.5531 552.138 77.9193 550.914 75.6675V75.6807Z" fill="#00607B"/>
<path d="M580.701 64.777C582.874 63.5128 585.521 62.8675 588.642 62.8675V69.7547H586.891C579.424 69.7547 575.684 73.8107 575.684 81.9095V102.15C575.684 103.019 574.973 103.73 574.104 103.73H569.021V63.6049H574.117C574.986 63.6049 575.684 64.3029 575.684 65.172V70.1235C576.856 67.8321 578.528 66.0543 580.701 64.777Z" fill="#00607B"/>
<path d="M420.451 52.1086C406.058 52.1086 394.39 63.7761 394.39 78.1695C394.39 92.5629 406.058 104.23 420.451 104.23C434.844 104.23 446.512 92.5629 446.512 78.1695C446.512 63.7761 434.844 52.1086 420.451 52.1086ZM420.451 97.8436C409.587 97.8436 400.79 89.0337 400.79 78.1827C400.79 67.3317 409.6 58.5218 420.451 58.5218C431.302 58.5218 440.112 67.3317 440.112 78.1827C440.112 89.0337 431.302 97.8436 420.451 97.8436Z" fill="#00607B"/>
<path d="M628.807 62.9465C617.363 62.9465 608.079 72.2305 608.079 83.6741C608.079 95.1177 617.363 104.402 628.807 104.402C640.25 104.402 649.534 95.1177 649.534 83.6741C649.534 72.2305 640.25 62.9465 628.807 62.9465ZM628.807 98.2914C620.734 98.2914 614.176 91.7465 614.176 83.6609C614.176 75.5753 620.721 69.0305 628.807 69.0305C636.892 69.0305 643.437 75.5753 643.437 83.6609C643.437 91.7465 636.892 98.2914 628.807 98.2914Z" fill="#00607B"/>
<path d="M600.928 63.6049V103.73H594.265V63.6049H600.928ZM597.597 48.0132C595.134 48.0132 593.133 50.0148 593.133 52.4774C593.133 54.9399 595.134 56.9416 597.597 56.9416C600.059 56.9416 602.061 54.9399 602.061 52.4774C602.061 50.0148 600.059 48.0132 597.597 48.0132Z" fill="#00607B"/>
<path d="M404.003 185.574C401.343 184.375 399.249 182.716 397.748 180.596C396.234 178.476 395.457 176.013 395.404 173.235H399.697C401.225 173.235 402.542 174.235 403.068 175.684C403.569 177.04 404.372 178.239 405.478 179.279C407.216 180.912 409.732 181.728 413.05 181.728C416.369 181.728 418.726 180.938 420.556 179.345C422.387 177.765 423.309 175.723 423.309 173.235C423.309 171.286 422.769 169.692 421.702 168.481C420.622 167.256 419.292 166.334 417.672 165.702C416.066 165.07 413.893 164.385 411.154 163.648C407.783 162.765 405.083 161.896 403.068 161.014C401.04 160.132 399.315 158.762 397.867 156.879C396.431 154.996 395.707 152.481 395.707 149.307C395.707 146.528 396.418 144.066 397.827 141.906C399.236 139.76 401.238 138.1 403.793 136.928C406.36 135.756 409.297 135.177 412.616 135.177C417.396 135.177 421.32 136.375 424.362 138.759C427.417 141.156 429.129 144.329 429.524 148.28H424.718C423.348 148.28 422.176 147.424 421.597 146.186C421.083 145.08 420.254 144.053 419.121 143.118C417.317 141.63 414.92 140.879 411.944 140.879C409.165 140.879 406.887 141.603 405.136 143.039C403.371 144.474 402.502 146.489 402.502 149.083C402.502 150.94 403.029 152.454 404.082 153.626C405.136 154.798 406.426 155.694 407.967 156.3C409.508 156.905 411.667 157.603 414.446 158.38C417.817 159.302 420.53 160.224 422.571 161.133C424.626 162.041 426.377 163.424 427.839 165.307C429.3 167.19 430.038 169.732 430.038 172.958C430.038 175.447 429.379 177.791 428.063 179.99C426.746 182.189 424.797 183.967 422.202 185.337C419.621 186.706 416.566 187.391 413.05 187.391C409.534 187.391 406.663 186.798 404.003 185.6V185.574Z" fill="#00607B"/>
<path d="M475.378 169.284H443.312C443.562 173.235 444.905 176.329 447.381 178.542C449.844 180.767 452.833 181.873 456.349 181.873C459.233 181.873 461.63 181.202 463.565 179.858C465.212 178.713 466.449 177.225 467.253 175.407C467.503 174.854 468.016 174.472 468.622 174.472H474.798C473.719 178.331 471.572 181.465 468.359 183.875C465.133 186.285 461.129 187.496 456.349 187.496C452.543 187.496 449.132 186.64 446.13 184.928C443.128 183.216 440.77 180.793 439.058 177.646C437.346 174.499 436.491 170.851 436.491 166.703C436.491 162.555 437.32 158.92 438.979 155.799C440.639 152.678 442.97 150.268 445.972 148.583C448.974 146.897 452.425 146.054 456.336 146.054C460.247 146.054 463.513 146.884 466.436 148.543C469.36 150.202 471.625 152.481 473.205 155.391C474.785 158.301 475.588 161.58 475.588 165.241C475.588 166.505 475.509 167.849 475.365 169.271L475.378 169.284ZM467.029 157.314C465.909 155.483 464.382 154.087 462.446 153.139C460.51 152.191 458.377 151.717 456.033 151.717C452.662 151.717 449.791 152.797 447.434 154.943C445.063 157.09 443.707 160.066 443.365 163.872H468.701C468.701 161.33 468.135 159.144 467.016 157.314H467.029Z" fill="#00607B"/>
<path d="M484.53 155.852C486.189 152.757 488.494 150.347 491.444 148.635C494.393 146.923 497.778 146.067 501.584 146.067C506.509 146.067 510.578 147.266 513.778 149.649C516.978 152.046 519.085 155.365 520.112 159.605H514.002C513.37 159.605 512.83 159.184 512.606 158.591C511.855 156.629 510.644 155.035 508.945 153.824C506.97 152.415 504.52 151.704 501.584 151.704C497.778 151.704 494.696 153.007 492.352 155.615C490.008 158.222 488.836 161.923 488.836 166.703C488.836 171.483 490.008 175.276 492.352 177.909C494.696 180.543 497.765 181.86 501.584 181.86C504.507 181.86 506.956 181.175 508.905 179.806C510.578 178.634 511.802 177.027 512.579 174.999C512.816 174.38 513.383 173.946 514.041 173.946H520.112C519.032 178.041 516.886 181.333 513.672 183.796C510.446 186.258 506.43 187.496 501.597 187.496C497.791 187.496 494.407 186.64 491.457 184.928C488.507 183.216 486.202 180.807 484.543 177.686C482.884 174.565 482.054 170.904 482.054 166.703C482.054 162.502 482.884 158.933 484.543 155.826L484.53 155.852Z" fill="#00607B"/>
<path d="M563.371 146.739V186.864H558.288C557.419 186.864 556.708 186.153 556.708 185.284V180.925C555.444 182.979 553.666 184.573 551.401 185.718C549.136 186.864 546.634 187.444 543.895 187.444C540.774 187.444 537.969 186.798 535.48 185.508C532.991 184.217 531.029 182.268 529.58 179.687C528.145 177.106 527.421 173.946 527.421 170.245V146.739H532.438C533.307 146.739 534.018 147.45 534.018 148.319V169.376C534.018 173.327 535.019 176.369 537.021 178.489C539.022 180.609 541.748 181.676 545.225 181.676C548.701 181.676 551.598 180.583 553.639 178.384C555.694 176.184 556.721 172.984 556.721 168.797V148.332C556.721 147.463 557.432 146.752 558.301 146.752H563.384L563.371 146.739Z" fill="#00607B"/>
<path d="M585.547 147.911C587.72 146.647 590.367 146.002 593.488 146.002V152.889H591.737C584.27 152.889 580.53 156.945 580.53 165.044V185.284C580.53 186.153 579.819 186.864 578.95 186.864H573.867V146.739H578.95C579.819 146.739 580.53 147.45 580.53 148.319V153.258C581.702 150.966 583.374 149.188 585.547 147.911Z" fill="#00607B"/>
<path d="M606.775 146.739V186.864H600.112V146.739H606.775Z" fill="#00607B"/>
<path d="M626.528 152.23V175.881C626.528 177.83 626.937 179.213 627.766 180.016C628.596 180.82 630.031 181.228 632.086 181.228H635.417C636.286 181.228 636.998 181.939 636.998 182.808V186.877H630.993C627.279 186.877 624.5 186.021 622.644 184.309C620.787 182.598 619.865 179.793 619.865 175.895V152.244H614.663V146.752H619.865V136.652H626.528V146.752H636.998V150.663C636.998 151.532 636.286 152.244 635.417 152.244H626.515L626.528 152.23Z" fill="#00607B"/>
<path d="M650.443 146.739V186.864H643.779V146.739H650.443Z" fill="#00607B"/>
<path d="M697.481 169.284H665.416C665.666 173.235 667.009 176.329 669.485 178.542C671.947 180.767 674.937 181.873 678.453 181.873C681.337 181.873 683.733 181.202 685.669 179.858C687.315 178.713 688.553 177.225 689.37 175.407C689.62 174.854 690.133 174.472 690.739 174.472H696.915C695.835 178.331 693.689 181.465 690.476 183.875C687.249 186.285 683.246 187.496 678.466 187.496C674.66 187.496 671.249 186.64 668.247 184.928C665.244 183.216 662.887 180.793 661.175 177.646C659.463 174.499 658.607 170.851 658.607 166.703C658.607 162.555 659.437 158.92 661.096 155.799C662.756 152.678 665.086 150.268 668.089 148.583C671.091 146.897 674.542 146.054 678.453 146.054C682.364 146.054 685.63 146.884 688.553 148.543C691.477 150.202 693.742 152.481 695.322 155.391C696.902 158.301 697.705 161.58 697.705 165.241C697.705 166.505 697.626 167.849 697.481 169.271V169.284ZM689.133 157.314C688.013 155.483 686.486 154.087 684.55 153.139C682.627 152.191 680.481 151.717 678.137 151.717C674.765 151.717 671.895 152.797 669.537 154.943C667.167 157.09 665.811 160.066 665.468 163.872H690.805C690.805 161.33 690.239 159.144 689.119 157.314H689.133Z" fill="#00607B"/>
<path d="M711.691 185.942C709.254 184.889 707.319 183.427 705.91 181.544C704.487 179.661 703.71 177.501 703.565 175.065H709.149C709.86 175.065 710.479 175.539 710.65 176.224C711.045 177.712 711.914 178.963 713.258 179.977C714.943 181.241 717.156 181.886 719.881 181.886C722.423 181.886 724.425 181.32 725.886 180.201C727.348 179.081 728.086 177.659 728.086 175.96C728.086 174.262 727.309 172.892 725.742 172.049C724.175 171.193 721.765 170.351 718.499 169.521C715.523 168.744 713.086 167.941 711.216 167.137C709.333 166.334 707.727 165.136 706.384 163.556C705.04 161.975 704.369 159.881 704.369 157.3C704.369 155.246 704.974 153.376 706.199 151.664C707.424 149.952 709.149 148.596 711.401 147.595C713.64 146.594 716.207 146.094 719.091 146.094C723.529 146.094 727.124 147.213 729.85 149.465C732.589 151.717 734.051 154.785 734.249 158.696H728.928C728.191 158.696 727.559 158.183 727.401 157.472C727.058 155.931 726.281 154.653 725.044 153.639C723.503 152.375 721.449 151.73 718.854 151.73C716.458 151.73 714.561 152.244 713.139 153.271C711.717 154.298 711.019 155.641 711.019 157.3C711.019 158.617 711.44 159.71 712.296 160.553C713.152 161.409 714.219 162.094 715.523 162.607C716.813 163.121 718.604 163.7 720.909 164.333C723.793 165.109 726.137 165.886 727.941 166.637C729.745 167.388 731.299 168.533 732.589 170.048C733.88 171.562 734.551 173.537 734.604 175.974C734.604 178.173 733.998 180.148 732.774 181.9C731.549 183.651 729.837 185.034 727.612 186.035C725.386 187.035 722.844 187.536 719.961 187.536C716.879 187.536 714.127 187.009 711.691 185.956V185.942Z" fill="#00607B"/>
<path d="M603.47 140.076C605.935 140.076 607.934 138.077 607.934 135.612C607.934 133.146 605.935 131.147 603.47 131.147C601.004 131.147 599.006 133.146 599.006 135.612C599.006 138.077 601.004 140.076 603.47 140.076Z" fill="#00607B"/>
<path d="M647.151 140.076C649.616 140.076 651.615 138.077 651.615 135.612C651.615 133.146 649.616 131.147 647.151 131.147C644.685 131.147 642.686 133.146 642.686 135.612C642.686 138.077 644.685 140.076 647.151 140.076Z" fill="#00607B"/>
<path d="M397.748 230.255C399.987 226.278 403.055 223.17 406.94 220.919C410.825 218.68 415.131 217.547 419.858 217.547C425.429 217.547 430.275 218.891 434.436 221.577C438.584 224.263 441.613 228.069 443.509 232.994H437.636C436.385 232.994 435.239 232.323 434.607 231.243C433.277 229.004 431.539 227.213 429.406 225.883C426.746 224.224 423.559 223.394 419.845 223.394C416.132 223.394 413.09 224.224 410.258 225.883C407.427 227.542 405.202 229.9 403.595 232.955C401.988 236.01 401.172 239.579 401.172 243.687C401.172 247.796 401.975 251.286 403.595 254.341C405.202 257.396 407.427 259.753 410.258 261.412C413.09 263.072 416.29 263.901 419.845 263.901C423.401 263.901 426.746 263.085 429.406 261.452C431.539 260.135 433.264 258.37 434.607 256.132C435.253 255.065 436.385 254.38 437.636 254.38H443.509C441.6 259.266 438.584 263.032 434.436 265.692C430.288 268.352 425.429 269.682 419.858 269.682C415.118 269.682 410.812 268.576 406.94 266.351C403.055 264.125 400 261.044 397.748 257.093C395.496 253.142 394.377 248.678 394.377 243.7C394.377 238.723 395.496 234.245 397.748 230.268V230.255Z" fill="#00607B"/>
<path d="M553.218 230.321C555.654 231.611 557.59 233.56 558.999 236.142C560.408 238.736 561.119 241.883 561.119 245.583V269.235H556.102C555.233 269.235 554.522 268.523 554.522 267.654V246.532C554.522 242.528 553.534 239.46 551.559 237.34C549.584 235.22 546.91 234.153 543.539 234.153C540.168 234.153 537.31 235.259 535.269 237.485C533.215 239.71 532.188 242.91 532.188 247.111V267.654C532.188 268.523 531.477 269.235 530.607 269.235H525.59V246.532C525.59 242.528 524.602 239.46 522.627 237.34C520.652 235.22 517.979 234.153 514.607 234.153C511.236 234.153 508.379 235.259 506.337 237.485C504.283 239.71 503.256 242.91 503.256 247.111V267.654C503.256 268.523 502.545 269.235 501.676 269.235H496.593V229.109H501.676C502.545 229.109 503.256 229.821 503.256 230.69V234.904C504.573 232.81 506.337 231.19 508.563 230.071C510.788 228.951 513.238 228.385 515.924 228.385C519.295 228.385 522.272 229.149 524.853 230.65C527.434 232.165 529.37 234.39 530.634 237.314C531.753 234.482 533.61 232.283 536.204 230.729C538.785 229.162 541.669 228.385 544.843 228.385C548.016 228.385 550.756 229.03 553.192 230.321H553.218Z" fill="#00607B"/>
<path d="M626.95 230.321C629.386 231.611 631.322 233.56 632.731 236.142C634.14 238.736 634.851 241.883 634.851 245.583V269.235H629.834C628.965 269.235 628.253 268.523 628.253 267.654V246.532C628.253 242.528 627.266 239.46 625.291 237.34C623.315 235.22 620.642 234.153 617.271 234.153C613.9 234.153 611.042 235.259 609.001 237.485C606.946 239.71 605.919 242.91 605.919 247.111V267.654C605.919 268.523 605.208 269.235 604.339 269.235H599.322V246.532C599.322 242.528 598.334 239.46 596.359 237.34C594.384 235.22 591.71 234.153 588.339 234.153C584.968 234.153 582.11 235.259 580.069 237.485C578.015 239.71 576.988 242.91 576.988 247.111V267.654C576.988 268.523 576.277 269.235 575.407 269.235H570.324V229.109H575.407C576.277 229.109 576.988 229.821 576.988 230.69V234.904C578.305 232.81 580.069 231.19 582.295 230.071C584.52 228.951 586.97 228.385 589.656 228.385C593.027 228.385 596.003 229.149 598.584 230.65C601.165 232.165 603.101 234.39 604.365 237.314C605.485 234.482 607.342 232.283 609.936 230.729C612.517 229.162 615.401 228.385 618.575 228.385C621.748 228.385 624.487 229.03 626.923 230.321H626.95Z" fill="#00607B"/>
<path d="M650.601 229.109V269.235H643.937V229.109H650.601Z" fill="#00607B"/>
<path d="M666.008 268.326C663.572 267.272 661.636 265.811 660.227 263.928C658.805 262.044 658.028 259.885 657.883 257.449H663.467C664.178 257.449 664.797 257.923 664.968 258.607C665.363 260.095 666.232 261.346 667.575 262.36C669.261 263.625 671.473 264.27 674.199 264.27C676.741 264.27 678.742 263.704 680.204 262.584C681.666 261.465 682.403 260.043 682.403 258.344C682.403 256.645 681.626 255.276 680.059 254.433C678.492 253.577 676.082 252.734 672.816 251.905C669.84 251.128 667.404 250.324 665.534 249.521C663.651 248.718 662.044 247.519 660.701 245.939C659.358 244.359 658.686 242.265 658.686 239.684C658.686 237.63 659.292 235.76 660.517 234.048C661.741 232.336 663.467 230.979 665.718 229.979C667.957 228.978 670.525 228.477 673.409 228.477C677.847 228.477 681.442 229.597 684.168 231.849C686.907 234.1 688.369 237.169 688.566 241.08H683.246C682.509 241.08 681.877 240.566 681.718 239.855C681.376 238.314 680.599 237.037 679.361 236.023C677.821 234.759 675.766 234.114 673.172 234.114C670.775 234.114 668.879 234.627 667.457 235.654C666.035 236.681 665.337 238.025 665.337 239.684C665.337 241.001 665.758 242.094 666.614 242.937C667.47 243.793 668.537 244.477 669.84 244.991C671.131 245.505 672.922 246.084 675.226 246.716C678.11 247.493 680.454 248.27 682.258 249.021C684.062 249.771 685.616 250.917 686.907 252.431C688.198 253.946 688.869 255.921 688.922 258.357C688.922 260.556 688.316 262.532 687.091 264.283C685.867 266.035 684.155 267.417 681.929 268.418C679.704 269.419 677.162 269.919 674.278 269.919C671.197 269.919 668.444 269.393 666.008 268.339V268.326Z" fill="#00607B"/>
<path d="M702.446 268.326C700.01 267.272 698.074 265.811 696.665 263.928C695.243 262.044 694.466 259.885 694.321 257.449H699.905C700.616 257.449 701.235 257.923 701.406 258.607C701.801 260.095 702.67 261.346 704.013 262.36C705.699 263.625 707.911 264.27 710.637 264.27C713.179 264.27 715.18 263.704 716.642 262.584C718.104 261.465 718.841 260.043 718.841 258.344C718.841 256.645 718.064 255.276 716.497 254.433C714.93 253.577 712.52 252.734 709.254 251.905C706.278 251.128 703.842 250.324 701.972 249.521C700.089 248.718 698.482 247.519 697.139 245.939C695.796 244.359 695.124 242.265 695.124 239.684C695.124 237.63 695.73 235.76 696.955 234.048C698.179 232.336 699.905 230.979 702.156 229.979C704.395 228.978 706.963 228.477 709.847 228.477C714.285 228.477 717.88 229.597 720.606 231.849C723.345 234.1 724.807 237.169 725.004 241.08H719.684C718.946 241.08 718.314 240.566 718.156 239.855C717.814 238.314 717.037 237.037 715.799 236.023C714.258 234.759 712.204 234.114 709.61 234.114C707.213 234.114 705.317 234.627 703.895 235.654C702.472 236.681 701.775 238.025 701.775 239.684C701.775 241.001 702.196 242.094 703.052 242.937C703.908 243.793 704.974 244.477 706.278 244.991C707.569 245.505 709.36 246.084 711.664 246.716C714.548 247.493 716.892 248.27 718.696 249.021C720.5 249.771 722.054 250.917 723.345 252.431C724.635 253.946 725.307 255.921 725.36 258.357C725.36 260.556 724.754 262.532 723.529 264.283C722.305 266.035 720.593 267.417 718.367 268.418C716.142 269.419 713.6 269.919 710.716 269.919C707.635 269.919 704.882 269.393 702.446 268.339V268.326Z" fill="#00607B"/>
<path d="M739.529 229.109V269.235H732.866V229.109H739.529Z" fill="#00607B"/>
<path d="M825.876 232.81C828.905 235.76 830.42 240.026 830.42 245.583V269.235H825.402C824.533 269.235 823.822 268.523 823.822 267.654V246.532C823.822 242.528 822.821 239.46 820.82 237.34C818.818 235.22 816.079 234.153 812.616 234.153C809.152 234.153 806.308 235.246 804.227 237.445C802.146 239.644 801.119 242.844 801.119 247.032V267.641C801.119 268.51 800.408 269.221 799.539 269.221H794.456V229.096H799.539C800.408 229.096 801.119 229.807 801.119 230.677V234.811C802.436 232.757 804.227 231.177 806.505 230.058C808.77 228.938 811.272 228.372 814.011 228.372C818.897 228.372 822.848 229.847 825.876 232.797V232.81Z" fill="#00607B"/>
<path d="M468.675 228.451C457.231 228.451 447.947 237.735 447.947 249.179C447.947 260.622 457.231 269.906 468.675 269.906C480.119 269.906 489.402 260.622 489.402 249.179C489.402 237.735 480.119 228.451 468.675 228.451ZM468.675 263.796C460.602 263.796 454.044 257.251 454.044 249.165C454.044 241.08 460.589 234.535 468.675 234.535C476.76 234.535 483.305 241.08 483.305 249.165C483.305 257.251 476.76 263.796 468.675 263.796Z" fill="#00607B"/>
<path d="M766.973 228.451C755.529 228.451 746.245 237.735 746.245 249.179C746.245 260.622 755.529 269.906 766.973 269.906C778.417 269.906 787.7 260.622 787.7 249.179C787.7 237.735 778.417 228.451 766.973 228.451ZM766.973 263.796C758.9 263.796 752.342 257.251 752.342 249.165C752.342 241.08 758.887 234.535 766.973 234.535C775.059 234.535 781.603 241.08 781.603 249.165C781.603 257.251 775.059 263.796 766.973 263.796Z" fill="#00607B"/>
<path d="M647.309 222.446C649.774 222.446 651.773 220.447 651.773 217.982C651.773 215.516 649.774 213.518 647.309 213.518C644.843 213.518 642.844 215.516 642.844 217.982C642.844 220.447 644.843 222.446 647.309 222.446Z" fill="#00607B"/>
<path d="M736.237 222.446C738.703 222.446 740.701 220.447 740.701 217.982C740.701 215.516 738.703 213.518 736.237 213.518C733.772 213.518 731.773 215.516 731.773 217.982C731.773 220.447 733.772 222.446 736.237 222.446Z" fill="#00607B"/>
<path d="M0 0V320H320V0H0ZM100.438 189.524C83.437 189.524 69.6626 175.75 69.6626 158.749C69.6626 141.748 83.437 127.974 100.438 127.974C117.439 127.974 131.213 141.748 131.213 158.749C131.213 175.75 117.439 189.524 100.438 189.524ZM178.647 180.517C177.001 183.23 174.604 185.402 171.457 187.049C168.309 188.695 164.596 189.511 160.329 189.511C156.286 189.511 152.652 188.8 149.426 187.391C146.186 185.982 143.658 183.967 141.801 181.373C139.957 178.779 139.035 175.75 139.035 172.286H145.554C147.635 172.286 149.544 173.498 150.347 175.421C150.874 176.658 151.638 177.751 152.665 178.7C154.482 180.372 157.037 181.215 160.329 181.215C163.621 181.215 166.387 180.398 168.296 178.752C170.206 177.106 171.154 174.986 171.154 172.392C171.154 170.377 170.561 168.731 169.376 167.454C168.191 166.189 166.716 165.202 164.965 164.517C163.2 163.819 160.764 163.068 157.643 162.265C153.719 161.225 150.532 160.171 148.069 159.105C145.62 158.038 143.526 156.379 141.788 154.127C140.063 151.875 139.193 148.872 139.193 145.119C139.193 141.656 140.063 138.627 141.788 136.033C143.513 133.439 145.949 131.45 149.057 130.054C152.178 128.672 155.786 127.974 159.881 127.974C165.715 127.974 170.482 129.435 174.209 132.346C177.936 135.256 179.99 139.259 180.398 144.342H173.353C171.378 144.342 169.587 143.223 168.678 141.472C168.151 140.458 167.388 139.549 166.374 138.719C164.464 137.165 161.962 136.388 158.841 136.388C156.01 136.388 153.705 137.113 151.914 138.548C150.123 139.997 149.228 142.064 149.228 144.777C149.228 146.621 149.794 148.135 150.914 149.32C152.033 150.505 153.468 151.44 155.193 152.138C156.919 152.836 159.289 153.587 162.291 154.39C166.268 155.483 169.521 156.589 172.036 157.682C174.551 158.775 176.685 160.474 178.449 162.752C180.214 165.03 181.083 168.072 181.083 171.891C181.083 174.947 180.267 177.844 178.621 180.543L178.647 180.517ZM201.811 170.39C203.575 173.735 206.012 176.316 209.133 178.133C212.254 179.951 215.796 180.859 219.786 180.859C223.421 180.859 226.621 180.082 229.399 178.515C231.48 177.343 233.218 175.723 234.614 173.643C235.575 172.221 237.208 171.417 238.92 171.417H247.756C245.505 177.185 241.883 181.636 236.892 184.744C231.901 187.865 226.199 189.419 219.786 189.419C214.123 189.419 208.961 188.102 204.286 185.481C199.612 182.861 195.898 179.2 193.159 174.525C190.42 169.85 189.05 164.57 189.05 158.683C189.05 152.797 190.42 147.516 193.159 142.841C195.898 138.166 199.625 134.519 204.326 131.885C209.027 129.264 214.176 127.947 219.786 127.947C226.199 127.947 231.888 129.514 236.892 132.662C241.883 135.809 245.505 140.273 247.756 146.041H238.92C237.208 146.041 235.562 145.238 234.614 143.816C233.218 141.735 231.48 140.115 229.399 138.943C226.634 137.389 223.421 136.612 219.786 136.612C215.809 136.612 212.254 137.508 209.133 139.299C206.012 141.09 203.575 143.658 201.811 147.002C200.046 150.347 199.164 154.245 199.164 158.696C199.164 163.147 200.046 167.032 201.811 170.39Z" fill="#00607B"/>
<path d="M100.438 180.53C112.475 180.53 122.232 170.772 122.232 158.736C122.232 146.699 112.475 136.942 100.438 136.942C88.4013 136.942 78.6436 146.699 78.6436 158.736C78.6436 170.772 88.4013 180.53 100.438 180.53Z" fill="#00607B"/>
</svg>
